<svg width="101" height="24" viewBox="0 0 101 24" fill="none" xmlns="http://www.w3.org/2000/svg">
<path d="M13.4094 20.81C13.0694 20.93 12.5094 20.93 12.1694 20.81C9.26943 19.82 2.78943 15.69 2.78943 8.69001C2.78943 5.60001 5.27943 3.10001 8.34943 3.10001C10.1694 3.10001 11.7794 3.98001 12.7894 5.34001C13.7994 3.98001 15.4194 3.10001 17.2294 3.10001C20.2994 3.10001 22.7894 5.60001 22.7894 8.69001C22.7894 15.69 16.3094 19.82 13.4094 20.81Z" stroke="white" stroke-width="1.5" stroke-linecap="round" stroke-linejoin="round"/>
<rect x="27.7894" y="4.5" width="14.2105" height="15" rx="7.10526" fill="#EDA415"/>
<path d="M32.4821 11.5042C32.4821 10.4179 32.6589 9.57158 33.0126 8.96526C33.3663 8.35263 33.9852 8.04632 34.8694 8.04632C35.7473 8.04632 36.3631 8.35263 36.7168 8.96526C37.0705 9.57158 37.2473 10.4179 37.2473 11.5042C37.2473 12.6095 37.0705 13.4684 36.7168 14.0811C36.3631 14.6937 35.7473 15 34.8694 15C33.9852 15 33.3663 14.6937 33.0126 14.0811C32.6589 13.4684 32.4821 12.6095 32.4821 11.5042ZM36.3947 11.5042C36.3947 10.9547 36.3568 10.4905 36.281 10.1116C36.2115 9.72632 36.0631 9.41684 35.8357 9.18316C35.6147 8.94947 35.2926 8.83263 34.8694 8.83263C34.44 8.83263 34.1115 8.94947 33.8842 9.18316C33.6631 9.41684 33.5147 9.72632 33.4389 10.1116C33.3694 10.4905 33.3347 10.9547 33.3347 11.5042C33.3347 12.0726 33.3694 12.5495 33.4389 12.9347C33.5147 13.32 33.6631 13.6295 33.8842 13.8632C34.1115 14.0968 34.44 14.2137 34.8694 14.2137C35.2926 14.2137 35.6147 14.0968 35.8357 13.8632C36.0631 13.6295 36.2115 13.32 36.281 12.9347C36.3568 12.5495 36.3947 12.0726 36.3947 11.5042Z" fill="white"/>
<path d="M58.172 16.598C57.528 16.598 56.9493 16.486 56.436 16.262C55.932 16.0287 55.5353 15.7113 55.246 15.31C54.9566 14.8993 54.8073 14.428 54.798 13.896H56.156C56.2026 14.3533 56.3893 14.7407 56.716 15.058C57.052 15.366 57.5373 15.52 58.172 15.52C58.7786 15.52 59.2546 15.3707 59.6 15.072C59.9546 14.764 60.132 14.372 60.132 13.896C60.132 13.5227 60.0293 13.2193 59.824 12.986C59.6186 12.7527 59.362 12.5753 59.054 12.454C58.746 12.3327 58.3306 12.202 57.808 12.062C57.164 11.894 56.646 11.726 56.254 11.558C55.8713 11.39 55.54 11.1287 55.26 10.774C54.9893 10.41 54.854 9.92467 54.854 9.318C54.854 8.786 54.9893 8.31467 55.26 7.904C55.5306 7.49333 55.9086 7.176 56.394 6.952C56.8886 6.728 57.4533 6.616 58.088 6.616C59.0026 6.616 59.7493 6.84467 60.328 7.302C60.916 7.75933 61.2473 8.366 61.322 9.122H59.922C59.8753 8.74867 59.6793 8.422 59.334 8.142C58.9886 7.85267 58.5313 7.708 57.962 7.708C57.43 7.708 56.996 7.848 56.66 8.128C56.324 8.39867 56.156 8.78133 56.156 9.276C56.156 9.63067 56.254 9.92 56.45 10.144C56.6553 10.368 56.9026 10.5407 57.192 10.662C57.4906 10.774 57.906 10.9047 58.438 11.054C59.082 11.2313 59.6 11.4087 59.992 11.586C60.384 11.754 60.72 12.02 61 12.384C61.28 12.7387 61.42 13.224 61.42 13.84C61.42 14.316 61.294 14.764 61.042 15.184C60.79 15.604 60.4166 15.9447 59.922 16.206C59.4273 16.4673 58.844 16.598 58.172 16.598ZM63.9528 7.582C63.7101 7.582 63.5048 7.498 63.3368 7.33C63.1688 7.162 63.0848 6.95667 63.0848 6.714C63.0848 6.47133 63.1688 6.266 63.3368 6.098C63.5048 5.93 63.7101 5.846 63.9528 5.846C64.1861 5.846 64.3821 5.93 64.5408 6.098C64.7088 6.266 64.7928 6.47133 64.7928 6.714C64.7928 6.95667 64.7088 7.162 64.5408 7.33C64.3821 7.498 64.1861 7.582 63.9528 7.582ZM64.5688 8.828V16.5H63.2948V8.828H64.5688ZM69.9041 8.702C70.5667 8.702 71.1454 8.84667 71.6401 9.136C72.1441 9.42533 72.5174 9.78933 72.7601 10.228V8.828H74.0481V16.668C74.0481 17.368 73.8987 17.9887 73.6001 18.53C73.3014 19.0807 72.8721 19.51 72.3121 19.818C71.7614 20.126 71.1174 20.28 70.3801 20.28C69.3721 20.28 68.5321 20.042 67.8601 19.566C67.1881 19.09 66.7914 18.4413 66.6701 17.62H67.9301C68.0701 18.0867 68.3594 18.46 68.7981 18.74C69.2367 19.0293 69.7641 19.174 70.3801 19.174C71.0801 19.174 71.6494 18.9547 72.0881 18.516C72.5361 18.0773 72.7601 17.4613 72.7601 16.668V15.058C72.5081 15.506 72.1347 15.8793 71.6401 16.178C71.1454 16.4767 70.5667 16.626 69.9041 16.626C69.2227 16.626 68.6021 16.458 68.0421 16.122C67.4914 15.786 67.0574 15.3147 66.7401 14.708C66.4227 14.1013 66.2641 13.4107 66.2641 12.636C66.2641 11.852 66.4227 11.166 66.7401 10.578C67.0574 9.98067 67.4914 9.51867 68.0421 9.192C68.6021 8.86533 69.2227 8.702 69.9041 8.702ZM72.7601 12.65C72.7601 12.0713 72.6434 11.5673 72.4101 11.138C72.1767 10.7087 71.8594 10.382 71.4581 10.158C71.0661 9.92467 70.6321 9.808 70.1561 9.808C69.6801 9.808 69.2461 9.92 68.8541 10.144C68.4621 10.368 68.1494 10.6947 67.9161 11.124C67.6827 11.5533 67.5661 12.0573 67.5661 12.636C67.5661 13.224 67.6827 13.7373 67.9161 14.176C68.1494 14.6053 68.4621 14.9367 68.8541 15.17C69.2461 15.394 69.6801 15.506 70.1561 15.506C70.6321 15.506 71.0661 15.394 71.4581 15.17C71.8594 14.9367 72.1767 14.6053 72.4101 14.176C72.6434 13.7373 72.7601 13.2287 72.7601 12.65ZM79.939 8.688C80.8723 8.688 81.6283 8.97267 82.207 9.542C82.7857 10.102 83.075 10.914 83.075 11.978V16.5H81.815V12.16C81.815 11.3947 81.6237 10.8113 81.241 10.41C80.8583 9.99933 80.3357 9.794 79.673 9.794C79.001 9.794 78.4643 10.004 78.063 10.424C77.671 10.844 77.475 11.4553 77.475 12.258V16.5H76.201V8.828H77.475V9.92C77.727 9.528 78.0677 9.22467 78.497 9.01C78.9357 8.79533 79.4163 8.688 79.939 8.688ZM89.5465 7.582C89.3038 7.582 89.0985 7.498 88.9305 7.33C88.7625 7.162 88.6785 6.95667 88.6785 6.714C88.6785 6.47133 88.7625 6.266 88.9305 6.098C89.0985 5.93 89.3038 5.846 89.5465 5.846C89.7798 5.846 89.9758 5.93 90.1345 6.098C90.3025 6.266 90.3865 6.47133 90.3865 6.714C90.3865 6.95667 90.3025 7.162 90.1345 7.33C89.9758 7.498 89.7798 7.582 89.5465 7.582ZM90.1625 8.828V16.5H88.8885V8.828H90.1625ZM96.0718 8.688C97.0051 8.688 97.7611 8.97267 98.3398 9.542C98.9185 10.102 99.2078 10.914 99.2078 11.978V16.5H97.9478V12.16C97.9478 11.3947 97.7565 10.8113 97.3738 10.41C96.9911 9.99933 96.4685 9.794 95.8058 9.794C95.1338 9.794 94.5971 10.004 94.1958 10.424C93.8038 10.844 93.6078 11.4553 93.6078 12.258V16.5H92.3338V8.828H93.6078V9.92C93.8598 9.528 94.2005 9.22467 94.6298 9.01C95.0685 8.79533 95.5491 8.688 96.0718 8.688Z" fill="white"/>
</svg>
