<svg width="84" height="24" viewBox="0 0 84 24" fill="none" xmlns="http://www.w3.org/2000/svg">
<path d="M12.7894 12C15.5509 12 17.7894 9.76142 17.7894 7C17.7894 4.23858 15.5509 2 12.7894 2C10.028 2 7.78943 4.23858 7.78943 7C7.78943 9.76142 10.028 12 12.7894 12Z" stroke="white" stroke-width="1.5" stroke-linecap="round" stroke-linejoin="round"/>
<path d="M21.3794 22C21.3794 18.13 17.5294 15 12.7894 15C8.04943 15 4.19943 18.13 4.19943 22" stroke="white" stroke-width="1.5" stroke-linecap="round" stroke-linejoin="round"/>
<path d="M40.9614 16.598C40.3174 16.598 39.7388 16.486 39.2254 16.262C38.7214 16.0287 38.3248 15.7113 38.0354 15.31C37.7461 14.8993 37.5968 14.428 37.5874 13.896H38.9454C38.9921 14.3533 39.1788 14.7407 39.5054 15.058C39.8414 15.366 40.3268 15.52 40.9614 15.52C41.5681 15.52 42.0441 15.3707 42.3894 15.072C42.7441 14.764 42.9214 14.372 42.9214 13.896C42.9214 13.5227 42.8188 13.2193 42.6134 12.986C42.4081 12.7527 42.1514 12.5753 41.8434 12.454C41.5354 12.3327 41.1201 12.202 40.5974 12.062C39.9534 11.894 39.4354 11.726 39.0434 11.558C38.6608 11.39 38.3294 11.1287 38.0494 10.774C37.7788 10.41 37.6434 9.92467 37.6434 9.318C37.6434 8.786 37.7788 8.31467 38.0494 7.904C38.3201 7.49333 38.6981 7.176 39.1834 6.952C39.6781 6.728 40.2428 6.616 40.8774 6.616C41.7921 6.616 42.5388 6.84467 43.1174 7.302C43.7054 7.75933 44.0368 8.366 44.1114 9.122H42.7114C42.6648 8.74867 42.4688 8.422 42.1234 8.142C41.7781 7.85267 41.3208 7.708 40.7514 7.708C40.2194 7.708 39.7854 7.848 39.4494 8.128C39.1134 8.39867 38.9454 8.78133 38.9454 9.276C38.9454 9.63067 39.0434 9.92 39.2394 10.144C39.4448 10.368 39.6921 10.5407 39.9814 10.662C40.2801 10.774 40.6954 10.9047 41.2274 11.054C41.8714 11.2313 42.3894 11.4087 42.7814 11.586C43.1734 11.754 43.5094 12.02 43.7894 12.384C44.0694 12.7387 44.2094 13.224 44.2094 13.84C44.2094 14.316 44.0834 14.764 43.8314 15.184C43.5794 15.604 43.2061 15.9447 42.7114 16.206C42.2168 16.4673 41.6334 16.598 40.9614 16.598ZM46.7422 7.582C46.4996 7.582 46.2942 7.498 46.1262 7.33C45.9582 7.162 45.8742 6.95667 45.8742 6.714C45.8742 6.47133 45.9582 6.266 46.1262 6.098C46.2942 5.93 46.4996 5.846 46.7422 5.846C46.9756 5.846 47.1716 5.93 47.3302 6.098C47.4982 6.266 47.5822 6.47133 47.5822 6.714C47.5822 6.95667 47.4982 7.162 47.3302 7.33C47.1716 7.498 46.9756 7.582 46.7422 7.582ZM47.3582 8.828V16.5H46.0842V8.828H47.3582ZM52.6935 8.702C53.3562 8.702 53.9349 8.84667 54.4295 9.136C54.9335 9.42533 55.3069 9.78933 55.5495 10.228V8.828H56.8375V16.668C56.8375 17.368 56.6882 17.9887 56.3895 18.53C56.0909 19.0807 55.6615 19.51 55.1015 19.818C54.5509 20.126 53.9069 20.28 53.1695 20.28C52.1615 20.28 51.3215 20.042 50.6495 19.566C49.9775 19.09 49.5809 18.4413 49.4595 17.62H50.7195C50.8595 18.0867 51.1489 18.46 51.5875 18.74C52.0262 19.0293 52.5535 19.174 53.1695 19.174C53.8695 19.174 54.4389 18.9547 54.8775 18.516C55.3255 18.0773 55.5495 17.4613 55.5495 16.668V15.058C55.2975 15.506 54.9242 15.8793 54.4295 16.178C53.9349 16.4767 53.3562 16.626 52.6935 16.626C52.0122 16.626 51.3915 16.458 50.8315 16.122C50.2809 15.786 49.8469 15.3147 49.5295 14.708C49.2122 14.1013 49.0535 13.4107 49.0535 12.636C49.0535 11.852 49.2122 11.166 49.5295 10.578C49.8469 9.98067 50.2809 9.51867 50.8315 9.192C51.3915 8.86533 52.0122 8.702 52.6935 8.702ZM55.5495 12.65C55.5495 12.0713 55.4329 11.5673 55.1995 11.138C54.9662 10.7087 54.6489 10.382 54.2475 10.158C53.8555 9.92467 53.4215 9.808 52.9455 9.808C52.4695 9.808 52.0355 9.92 51.6435 10.144C51.2515 10.368 50.9389 10.6947 50.7055 11.124C50.4722 11.5533 50.3555 12.0573 50.3555 12.636C50.3555 13.224 50.4722 13.7373 50.7055 14.176C50.9389 14.6053 51.2515 14.9367 51.6435 15.17C52.0355 15.394 52.4695 15.506 52.9455 15.506C53.4215 15.506 53.8555 15.394 54.2475 15.17C54.6489 14.9367 54.9662 14.6053 55.1995 14.176C55.4329 13.7373 55.5495 13.2287 55.5495 12.65ZM62.7285 8.688C63.6618 8.688 64.4178 8.97267 64.9965 9.542C65.5751 10.102 65.8645 10.914 65.8645 11.978V16.5H64.6045V12.16C64.6045 11.3947 64.4131 10.8113 64.0305 10.41C63.6478 9.99933 63.1251 9.794 62.4625 9.794C61.7905 9.794 61.2538 10.004 60.8525 10.424C60.4605 10.844 60.2645 11.4553 60.2645 12.258V16.5H58.9905V8.828H60.2645V9.92C60.5165 9.528 60.8571 9.22467 61.2865 9.01C61.7251 8.79533 62.2058 8.688 62.7285 8.688ZM72.336 7.582C72.0933 7.582 71.888 7.498 71.72 7.33C71.552 7.162 71.468 6.95667 71.468 6.714C71.468 6.47133 71.552 6.266 71.72 6.098C71.888 5.93 72.0933 5.846 72.336 5.846C72.5693 5.846 72.7653 5.93 72.924 6.098C73.092 6.266 73.176 6.47133 73.176 6.714C73.176 6.95667 73.092 7.162 72.924 7.33C72.7653 7.498 72.5693 7.582 72.336 7.582ZM72.952 8.828V16.5H71.678V8.828H72.952ZM78.8613 8.688C79.7946 8.688 80.5506 8.97267 81.1293 9.542C81.708 10.102 81.9973 10.914 81.9973 11.978V16.5H80.7373V12.16C80.7373 11.3947 80.546 10.8113 80.1633 10.41C79.7806 9.99933 79.258 9.794 78.5953 9.794C77.9233 9.794 77.3866 10.004 76.9853 10.424C76.5933 10.844 76.3973 11.4553 76.3973 12.258V16.5H75.1233V8.828H76.3973V9.92C76.6493 9.528 76.99 9.22467 77.4193 9.01C77.858 8.79533 78.3386 8.688 78.8613 8.688Z" fill="white"/>
</svg>
