<svg width="85" height="24" viewBox="0 0 85 24" fill="none" xmlns="http://www.w3.org/2000/svg">
<path d="M1.99995 2H3.73996C4.81996 2 5.66996 2.93 5.57996 4L4.74995 13.96C4.60995 15.59 5.89995 16.99 7.53995 16.99H18.19C19.63 16.99 20.89 15.81 21 14.38L21.5399 6.88C21.6599 5.22 20.3999 3.87 18.7299 3.87H5.81996" stroke="white" stroke-width="1.5" stroke-miterlimit="10" stroke-linecap="round" stroke-linejoin="round"/>
<path d="M16.25 22C16.9403 22 17.5 21.4404 17.5 20.75C17.5 20.0596 16.9403 19.5 16.25 19.5C15.5596 19.5 15 20.0596 15 20.75C15 21.4404 15.5596 22 16.25 22Z" stroke="white" stroke-width="1.5" stroke-miterlimit="10" stroke-linecap="round" stroke-linejoin="round"/>
<path d="M8.24995 22C8.94031 22 9.49995 21.4404 9.49995 20.75C9.49995 20.0596 8.94031 19.5 8.24995 19.5C7.5596 19.5 6.99995 20.0596 6.99995 20.75C6.99995 21.4404 7.5596 22 8.24995 22Z" stroke="white" stroke-width="1.5" stroke-miterlimit="10" stroke-linecap="round" stroke-linejoin="round"/>
<path d="M8.99995 8H21" stroke="white" stroke-width="1.5" stroke-miterlimit="10" stroke-linecap="round" stroke-linejoin="round"/>
<rect x="27" y="4.5" width="14.2105" height="15" rx="7.10526" fill="#EDA415"/>
<path d="M31.6926 11.5042C31.6926 10.4179 31.8694 9.57158 32.2231 8.96526C32.5768 8.35263 33.1958 8.04632 34.08 8.04632C34.9579 8.04632 35.5736 8.35263 35.9273 8.96526C36.281 9.57158 36.4579 10.4179 36.4579 11.5042C36.4579 12.6095 36.281 13.4684 35.9273 14.0811C35.5736 14.6937 34.9579 15 34.08 15C33.1958 15 32.5768 14.6937 32.2231 14.0811C31.8694 13.4684 31.6926 12.6095 31.6926 11.5042ZM35.6052 11.5042C35.6052 10.9547 35.5673 10.4905 35.4915 10.1116C35.4221 9.72632 35.2736 9.41684 35.0463 9.18316C34.8252 8.94947 34.5031 8.83263 34.08 8.83263C33.6505 8.83263 33.3221 8.94947 33.0947 9.18316C32.8736 9.41684 32.7252 9.72632 32.6494 10.1116C32.58 10.4905 32.5452 10.9547 32.5452 11.5042C32.5452 12.0726 32.58 12.5495 32.6494 12.9347C32.7252 13.32 32.8736 13.6295 33.0947 13.8632C33.3221 14.0968 33.6505 14.2137 34.08 14.2137C34.5031 14.2137 34.8252 14.0968 35.0463 13.8632C35.2736 13.6295 35.4221 13.32 35.4915 12.9347C35.5673 12.5495 35.6052 12.0726 35.6052 11.5042Z" fill="white"/>
<path d="M53.8125 11.614C53.8125 10.662 54.0271 9.808 54.4565 9.052C54.8858 8.28667 55.4691 7.68933 56.2065 7.26C56.9531 6.83067 57.7791 6.616 58.6845 6.616C59.7485 6.616 60.6771 6.87267 61.4705 7.386C62.2638 7.89933 62.8425 8.62733 63.2065 9.57H61.6805C61.4098 8.982 61.0178 8.52933 60.5045 8.212C60.0005 7.89467 59.3938 7.736 58.6845 7.736C58.0031 7.736 57.3918 7.89467 56.8505 8.212C56.3091 8.52933 55.8845 8.982 55.5765 9.57C55.2685 10.1487 55.1145 10.83 55.1145 11.614C55.1145 12.3887 55.2685 13.07 55.5765 13.658C55.8845 14.2367 56.3091 14.6847 56.8505 15.002C57.3918 15.3193 58.0031 15.478 58.6845 15.478C59.3938 15.478 60.0005 15.324 60.5045 15.016C61.0178 14.6987 61.4098 14.246 61.6805 13.658H63.2065C62.8425 14.5913 62.2638 15.3147 61.4705 15.828C60.6771 16.332 59.7485 16.584 58.6845 16.584C57.7791 16.584 56.9531 16.374 56.2065 15.954C55.4691 15.5247 54.8858 14.932 54.4565 14.176C54.0271 13.42 53.8125 12.566 53.8125 11.614ZM64.6269 12.636C64.6269 11.852 64.7856 11.166 65.1029 10.578C65.4203 9.98067 65.8543 9.51867 66.4049 9.192C66.9649 8.86533 67.5856 8.702 68.2669 8.702C68.9389 8.702 69.5223 8.84667 70.0169 9.136C70.5116 9.42533 70.8803 9.78933 71.1229 10.228V8.828H72.4109V16.5H71.1229V15.072C70.8709 15.52 70.4929 15.8933 69.9889 16.192C69.4943 16.4813 68.9156 16.626 68.2529 16.626C67.5716 16.626 66.9556 16.458 66.4049 16.122C65.8543 15.786 65.4203 15.3147 65.1029 14.708C64.7856 14.1013 64.6269 13.4107 64.6269 12.636ZM71.1229 12.65C71.1229 12.0713 71.0063 11.5673 70.7729 11.138C70.5396 10.7087 70.2223 10.382 69.8209 10.158C69.4289 9.92467 68.9949 9.808 68.5189 9.808C68.0429 9.808 67.6089 9.92 67.2169 10.144C66.8249 10.368 66.5123 10.6947 66.2789 11.124C66.0456 11.5533 65.9289 12.0573 65.9289 12.636C65.9289 13.224 66.0456 13.7373 66.2789 14.176C66.5123 14.6053 66.8249 14.9367 67.2169 15.17C67.6089 15.394 68.0429 15.506 68.5189 15.506C68.9949 15.506 69.4289 15.394 69.8209 15.17C70.2223 14.9367 70.5396 14.6053 70.7729 14.176C71.0063 13.7373 71.1229 13.2287 71.1229 12.65ZM75.8379 10.074C76.0619 9.63533 76.3792 9.29467 76.7899 9.052C77.2099 8.80933 77.7185 8.688 78.3159 8.688V10.004H77.9799C76.5519 10.004 75.8379 10.7787 75.8379 12.328V16.5H74.5639V8.828H75.8379V10.074ZM81.3405 9.878V14.4C81.3405 14.7733 81.4199 15.0393 81.5785 15.198C81.7372 15.3473 82.0125 15.422 82.4045 15.422H83.3425V16.5H82.1945C81.4852 16.5 80.9532 16.3367 80.5985 16.01C80.2439 15.6833 80.0665 15.1467 80.0665 14.4V9.878H79.0725V8.828H80.0665V6.896H81.3405V8.828H83.3425V9.878H81.3405Z" fill="white"/>
</svg>
